<svg width="261" height="133" viewBox="0 0 261 133" fill="none" xmlns="http://www.w3.org/2000/svg">
<path d="M179.449 31.0053C177.316 31.0053 175.247 31.2695 173.275 31.7637C169.741 26.8295 163.847 23.5977 157.17 23.5977C155 23.5977 152.918 23.9432 150.967 24.5727C147.68 10.5073 134.683 0 119.141 0C101.115 0 86.5032 14.1274 86.5032 31.5544C86.5032 31.9138 86.5195 32.2696 86.5306 32.6246C84.2367 31.9295 81.7964 31.5544 79.2654 31.5544C65.8648 31.5544 55.0006 42.0558 55.0006 55.015C55.0006 67.9706 65.8652 78.473 79.2654 78.473H151.917H165.401H179.45C193.008 78.473 204 67.8466 204 54.7391C203.999 41.6308 193.007 31.0053 179.449 31.0053Z" fill="#E4F2F9"/>
<path d="M105.143 24.955C105.143 16.4871 107.002 8.43968 110.341 1.16866C96.592 4.88302 86.5026 17.0752 86.5026 31.5535C86.5026 31.9129 86.5189 32.2687 86.53 32.6237C84.2361 31.9286 81.7958 31.5535 79.2648 31.5535C65.8641 31.5535 55 42.055 55 55.0141C55 67.9697 65.8646 78.4721 79.2648 78.4721H140.925C119.83 69.2825 105.143 48.7769 105.143 24.955Z" fill="#D7EDF9"/>
<path d="M25.2486 111.4L26.1486 110.75C27.282 110.083 28.082 109.75 28.5486 109.75C29.582 109.75 30.6986 110.683 31.8986 112.55C32.632 113.717 32.9986 114.65 32.9986 115.35C32.9986 116.05 32.7653 116.633 32.2986 117.1C31.8653 117.567 31.3486 117.983 30.7486 118.35C30.1486 118.717 29.5653 119.067 28.9986 119.4C28.4653 119.733 27.3486 120.167 25.6486 120.7C23.9486 121.233 22.2986 121.5 20.6986 121.5C19.132 121.5 17.532 121.3 15.8986 120.9C14.2986 120.467 12.632 119.767 10.8986 118.8C9.19863 117.8 7.6653 116.6 6.29863 115.2C4.93197 113.767 3.79863 111.95 2.89863 109.75C2.03197 107.517 1.59863 105.1 1.59863 102.5C1.59863 99.9 2.03197 97.55 2.89863 95.45C3.7653 93.3167 4.8653 91.5667 6.19863 90.2C7.5653 88.8 9.1153 87.6333 10.8486 86.7C14.1153 84.9 17.3986 84 20.6986 84C22.2653 84 23.8486 84.25 25.4486 84.75C27.082 85.2167 28.3153 85.7 29.1486 86.2L30.3486 86.9C30.9486 87.2667 31.4153 87.5667 31.7486 87.8C32.6153 88.5 33.0486 89.3 33.0486 90.2C33.0486 91.0667 32.6986 91.9833 31.9986 92.95C30.6986 94.75 29.532 95.65 28.4986 95.65C27.8986 95.65 27.0486 95.2833 25.9486 94.55C24.5486 93.4167 22.682 92.85 20.3486 92.85C18.182 92.85 16.0486 93.6 13.9486 95.1C12.9486 95.8333 12.1153 96.8667 11.4486 98.2C10.782 99.5333 10.4486 101.05 10.4486 102.75C10.4486 104.417 10.782 105.917 11.4486 107.25C12.1153 108.583 12.9653 109.633 13.9986 110.4C16.032 111.867 18.1486 112.6 20.3486 112.6C21.382 112.6 22.3486 112.467 23.2486 112.2C24.182 111.933 24.8486 111.667 25.2486 111.4ZM36.2842 86.65C36.2842 85.8833 36.3008 85.3167 36.3342 84.95C36.4008 84.55 36.5508 84.1 36.7842 83.6C37.2508 82.7 38.5508 82.25 40.6842 82.25C42.7175 82.25 43.9842 82.7 44.4842 83.6C44.7508 84.1 44.9008 84.55 44.9342 84.95C45.0008 85.35 45.0342 85.9333 45.0342 86.7V109.85C45.0342 111.05 45.1342 111.817 45.3342 112.15C45.5342 112.45 45.9675 112.6 46.6342 112.6C47.3342 112.6 47.8008 112.633 48.0342 112.7C48.2675 112.733 48.5508 112.867 48.8842 113.1C49.5508 113.533 49.8842 114.717 49.8842 116.65C49.8842 118.75 49.5508 120.033 48.8842 120.5C48.0175 121.1 45.9508 121.2 42.6842 120.8C40.1175 120.467 38.4508 119.617 37.6842 118.25C36.7508 116.617 36.2842 114.017 36.2842 110.45V86.65ZM52.6416 99.05C52.6416 98.2833 52.6583 97.7167 52.6916 97.35C52.7583 96.95 52.9083 96.5 53.1416 96C53.6083 95.1333 54.9083 94.7 57.0416 94.7C58.6416 94.7 59.7749 94.9833 60.4416 95.55C61.0083 96.0167 61.3083 96.7333 61.3416 97.7C61.3749 98.0333 61.3916 98.5167 61.3916 99.15V116.65C61.3916 117.417 61.3583 118 61.2916 118.4C61.2583 118.767 61.1083 119.2 60.8416 119.7C60.4083 120.567 59.1249 121 56.9916 121C54.8916 121 53.6083 120.55 53.1416 119.65C52.9083 119.15 52.7583 118.717 52.6916 118.35C52.6583 117.983 52.6416 117.4 52.6416 116.6V99.05ZM60.8416 89.8C60.6083 90.2667 60.1749 90.6 59.5416 90.8C58.9083 91 58.0583 91.1 56.9916 91.1C55.9583 91.1 55.1249 91 54.4916 90.8C53.8583 90.6 53.4083 90.25 53.1416 89.75C52.9083 89.25 52.7583 88.8167 52.6916 88.45C52.6583 88.05 52.6416 87.4667 52.6416 86.7C52.6416 85.9333 52.6583 85.3667 52.6916 85C52.7583 84.6 52.9083 84.1667 53.1416 83.7C53.6083 82.8 54.9083 82.35 57.0416 82.35C59.1416 82.35 60.4083 82.8 60.8416 83.7C61.1083 84.2 61.2583 84.65 61.2916 85.05C61.3583 85.4167 61.3916 85.9833 61.3916 86.75C61.3916 87.5167 61.3583 88.1 61.2916 88.5C61.2583 88.8667 61.1083 89.3 60.8416 89.8ZM73.9857 98.15C75.5524 95.7833 77.4357 94.6 79.6357 94.6C83.0357 94.6 85.5691 96.05 87.2357 98.95C87.6024 98.45 88.0357 97.9333 88.5357 97.4C89.0691 96.8333 89.9024 96.2333 91.0357 95.6C92.1691 94.9333 93.3357 94.6 94.5357 94.6C97.2024 94.6 99.4357 95.6333 101.236 97.7C103.036 99.7333 103.936 103.117 103.936 107.85V116.6C103.936 117.367 103.902 117.95 103.836 118.35C103.802 118.717 103.652 119.15 103.386 119.65C102.952 120.55 101.669 121 99.5357 121C97.4357 121 96.1524 120.533 95.6857 119.6C95.4524 119.1 95.3024 118.667 95.2357 118.3C95.2024 117.9 95.1857 117.317 95.1857 116.55V107.8C95.1857 104.9 94.1524 103.45 92.0857 103.45C90.9191 103.45 90.1191 103.833 89.6857 104.6C89.2857 105.367 89.0857 106.45 89.0857 107.85V116.6C89.0857 117.4 89.0524 117.983 88.9857 118.35C88.9524 118.717 88.8024 119.15 88.5357 119.65C88.0691 120.55 86.7691 121 84.6357 121C82.5357 121 81.2524 120.533 80.7857 119.6C80.5524 119.1 80.4024 118.667 80.3357 118.3C80.3024 117.9 80.2857 117.317 80.2857 116.55V107.8C80.2857 104.9 79.2524 103.45 77.1857 103.45C75.1857 103.45 74.1857 104.9 74.1857 107.8V116.65C74.1857 117.417 74.1524 118 74.0857 118.4C74.0524 118.767 73.9024 119.2 73.6357 119.7C73.1357 120.567 71.8357 121 69.7357 121C67.6357 121 66.3524 120.55 65.8857 119.65C65.6524 119.15 65.5024 118.717 65.4357 118.35C65.4024 117.983 65.3857 117.4 65.3857 116.6V99C65.3857 98.2333 65.4024 97.6667 65.4357 97.3C65.5024 96.9 65.6691 96.4667 65.9357 96C66.4357 95.1 67.6191 94.65 69.4857 94.65C71.3524 94.65 72.5691 94.95 73.1357 95.55C73.7024 96.15 73.9857 97.0167 73.9857 98.15ZM125.015 97.45C125.215 95.5833 126.532 94.65 128.965 94.65C130.265 94.65 131.232 94.75 131.865 94.95C132.498 95.15 132.932 95.5 133.165 96C133.432 96.5 133.582 96.95 133.615 97.35C133.682 97.7167 133.715 98.2833 133.715 99.05V116.55C133.715 117.317 133.682 117.9 133.615 118.3C133.582 118.667 133.448 119.1 133.215 119.6C132.748 120.467 131.598 120.9 129.765 120.9C127.965 120.9 126.748 120.683 126.115 120.25C125.515 119.783 125.165 119.117 125.065 118.25C123.832 120.017 121.765 120.9 118.865 120.9C115.998 120.9 113.332 119.583 110.865 116.95C108.398 114.317 107.165 111.267 107.165 107.8C107.165 104.3 108.398 101.25 110.865 98.65C113.365 96.0167 116.098 94.7 119.065 94.7C120.198 94.7 121.232 94.9 122.165 95.3C123.098 95.7 123.748 96.0833 124.115 96.45C124.482 96.7833 124.782 97.1167 125.015 97.45ZM115.915 107.85C115.915 108.95 116.348 109.95 117.215 110.85C118.082 111.717 119.132 112.15 120.365 112.15C121.598 112.15 122.615 111.7 123.415 110.8C124.248 109.9 124.665 108.917 124.665 107.85C124.665 106.75 124.265 105.733 123.465 104.8C122.698 103.867 121.648 103.4 120.315 103.4C119.015 103.4 117.948 103.867 117.115 104.8C116.315 105.733 115.915 106.75 115.915 107.85Z" fill="#83D4ED"/>
<path d="M174.597 84.35C175.363 84.35 175.93 84.3833 176.297 84.45C176.697 84.4833 177.13 84.6333 177.597 84.9C178.097 85.1667 178.447 85.6167 178.647 86.25C178.847 86.8833 178.947 87.7333 178.947 88.8C178.947 89.8667 178.847 90.7167 178.647 91.35C178.447 91.9833 178.097 92.4333 177.597 92.7C177.097 92.9333 176.647 93.0833 176.247 93.15C175.88 93.1833 175.297 93.2 174.497 93.2H159.197V98.25H169.047C169.847 98.25 170.43 98.2833 170.797 98.35C171.197 98.3833 171.647 98.5333 172.147 98.8C173.013 99.3 173.447 100.617 173.447 102.75C173.447 105.083 172.813 106.467 171.547 106.9C171.013 107.067 170.163 107.15 168.997 107.15H159.197V116.6C159.197 117.4 159.163 117.983 159.097 118.35C159.063 118.717 158.913 119.15 158.647 119.65C158.18 120.55 156.88 121 154.747 121C152.413 121 151.047 120.367 150.647 119.1C150.447 118.567 150.347 117.717 150.347 116.55V88.75C150.347 87.05 150.663 85.9 151.297 85.3C151.93 84.6667 153.13 84.35 154.897 84.35H174.597ZM195.035 97.45C195.235 95.5833 196.551 94.65 198.985 94.65C200.285 94.65 201.251 94.75 201.885 94.95C202.518 95.15 202.951 95.5 203.185 96C203.451 96.5 203.601 96.95 203.635 97.35C203.701 97.7167 203.735 98.2833 203.735 99.05V116.55C203.735 117.317 203.701 117.9 203.635 118.3C203.601 118.667 203.468 119.1 203.235 119.6C202.768 120.467 201.618 120.9 199.785 120.9C197.985 120.9 196.768 120.683 196.135 120.25C195.535 119.783 195.185 119.117 195.085 118.25C193.851 120.017 191.785 120.9 188.885 120.9C186.018 120.9 183.351 119.583 180.885 116.95C178.418 114.317 177.185 111.267 177.185 107.8C177.185 104.3 178.418 101.25 180.885 98.65C183.385 96.0167 186.118 94.7 189.085 94.7C190.218 94.7 191.251 94.9 192.185 95.3C193.118 95.7 193.768 96.0833 194.135 96.45C194.501 96.7833 194.801 97.1167 195.035 97.45ZM189.185 92.2L187.685 92.55C186.685 92.55 185.868 91.5667 185.235 89.6C184.968 88.8 184.835 88.1167 184.835 87.55C184.835 86.9833 184.935 86.55 185.135 86.25C185.468 85.8167 186.085 85.4667 186.985 85.2L195.235 82.65C196.101 82.4167 196.601 82.3 196.735 82.3C197.735 82.3 198.535 83.2833 199.135 85.25C199.401 86.05 199.535 86.7333 199.535 87.3C199.535 87.8333 199.435 88.25 199.235 88.55C198.901 88.9833 198.285 89.3333 197.385 89.6L189.185 92.2ZM185.935 107.85C185.935 108.95 186.368 109.95 187.235 110.85C188.101 111.717 189.151 112.15 190.385 112.15C191.618 112.15 192.635 111.7 193.435 110.8C194.268 109.9 194.685 108.917 194.685 107.85C194.685 106.75 194.285 105.733 193.485 104.8C192.718 103.867 191.668 103.4 190.335 103.4C189.035 103.4 187.968 103.867 187.135 104.8C186.335 105.733 185.935 106.75 185.935 107.85ZM215.97 107.85C215.97 109.25 216.436 110.35 217.37 111.15C218.303 111.917 219.286 112.3 220.32 112.3C221.386 112.3 222.37 112 223.27 111.4C224.203 110.767 224.953 110.45 225.52 110.45C226.52 110.45 227.736 111.333 229.17 113.1C229.936 114.067 230.32 114.933 230.32 115.7C230.32 116.967 229.403 118.15 227.57 119.25C225.67 120.583 223.336 121.25 220.57 121.25C217.47 121.25 214.486 120.133 211.62 117.9C210.253 116.833 209.136 115.417 208.27 113.65C207.403 111.85 206.97 109.883 206.97 107.75C206.97 105.583 207.403 103.633 208.27 101.9C209.136 100.133 210.253 98.7167 211.62 97.65C214.386 95.45 217.336 94.35 220.47 94.35C221.736 94.35 222.97 94.5333 224.17 94.9C225.37 95.2333 226.253 95.5667 226.82 95.9L227.62 96.4C228.22 96.8 228.686 97.1167 229.02 97.35C229.886 98.0167 230.32 98.7833 230.32 99.65C230.32 100.483 229.97 101.433 229.27 102.5C228.07 104.333 226.92 105.25 225.82 105.25C225.186 105.25 224.286 104.883 223.12 104.15C222.52 103.583 221.653 103.3 220.52 103.3C219.42 103.3 218.386 103.7 217.42 104.5C216.453 105.3 215.97 106.417 215.97 107.85ZM233.55 99.05C233.55 98.2833 233.566 97.7167 233.6 97.35C233.666 96.95 233.816 96.5 234.05 96C234.516 95.1333 235.816 94.7 237.95 94.7C239.55 94.7 240.683 94.9833 241.35 95.55C241.916 96.0167 242.216 96.7333 242.25 97.7C242.283 98.0333 242.3 98.5167 242.3 99.15V116.65C242.3 117.417 242.266 118 242.2 118.4C242.166 118.767 242.016 119.2 241.75 119.7C241.316 120.567 240.033 121 237.9 121C235.8 121 234.516 120.55 234.05 119.65C233.816 119.15 233.666 118.717 233.6 118.35C233.566 117.983 233.55 117.4 233.55 116.6V99.05ZM241.75 89.8C241.516 90.2667 241.083 90.6 240.45 90.8C239.816 91 238.966 91.1 237.9 91.1C236.866 91.1 236.033 91 235.4 90.8C234.766 90.6 234.316 90.25 234.05 89.75C233.816 89.25 233.666 88.8167 233.6 88.45C233.566 88.05 233.55 87.4667 233.55 86.7C233.55 85.9333 233.566 85.3667 233.6 85C233.666 84.6 233.816 84.1667 234.05 83.7C234.516 82.8 235.816 82.35 237.95 82.35C240.05 82.35 241.316 82.8 241.75 83.7C242.016 84.2 242.166 84.65 242.2 85.05C242.266 85.4167 242.3 85.9833 242.3 86.75C242.3 87.5167 242.266 88.1 242.2 88.5C242.166 88.8667 242.016 89.3 241.75 89.8ZM246.294 86.65C246.294 85.8833 246.311 85.3167 246.344 84.95C246.411 84.55 246.561 84.1 246.794 83.6C247.261 82.7 248.561 82.25 250.694 82.25C252.727 82.25 253.994 82.7 254.494 83.6C254.761 84.1 254.911 84.55 254.944 84.95C255.011 85.35 255.044 85.9333 255.044 86.7V109.85C255.044 111.05 255.144 111.817 255.344 112.15C255.544 112.45 255.977 112.6 256.644 112.6C257.344 112.6 257.811 112.633 258.044 112.7C258.277 112.733 258.561 112.867 258.894 113.1C259.561 113.533 259.894 114.717 259.894 116.65C259.894 118.75 259.561 120.033 258.894 120.5C258.027 121.1 255.961 121.2 252.694 120.8C250.127 120.467 248.461 119.617 247.694 118.25C246.761 116.617 246.294 114.017 246.294 110.45V86.65Z" fill="#C4C4C4"/>
</svg>
